<?xml version="1.0" encoding="utf-8"?>
<!-- Generator: Adobe Illustrator 25.4.1, SVG Export Plug-In . SVG Version: 6.00 Build 0)  -->
<svg version="1.2" baseProfile="tiny" id="Layer_1" xmlns="http://www.w3.org/2000/svg" xmlns:xlink="http://www.w3.org/1999/xlink"
	 x="0px" y="0px" viewBox="0 0 50 50" overflow="visible" xml:space="preserve">
<g>
	<path d="M2.05,42.24c0-7.84,0-15.63,0-23.59c1.58,1.07,3.06,2.06,4.52,3.06c5.93,4.07,11.87,8.14,17.78,12.24
		c0.59,0.41,0.97,0.23,1.44-0.1c7.09-4.88,14.18-9.75,21.28-14.62c0.25-0.17,0.52-0.33,0.88-0.56c0,7.92,0,15.71,0,23.56
		C32.67,42.24,17.41,42.24,2.05,42.24z"/>
	<path d="M25.02,7.78c7.27,0,14.53,0.02,21.8-0.02c0.98-0.01,1.27,0.25,1.21,1.23c-0.09,1.69-0.05,3.39-0.01,5.09
		c0.01,0.57-0.15,0.92-0.64,1.25c-5.6,3.82-11.17,7.67-16.76,11.52c-1.66,1.14-3.33,2.26-4.97,3.43c-0.46,0.33-0.76,0.38-1.26,0.04
		c-7.1-4.91-14.22-9.8-21.35-14.66c-0.75-0.51-1.14-1.03-1.08-2c0.1-1.56,0.08-3.14,0.01-4.7C1.93,8.04,2.19,7.75,3.13,7.76
		C10.2,7.8,17.28,7.78,24.35,7.78C24.57,7.78,24.8,7.78,25.02,7.78z"/>
</g>
</svg>
