<?xml version="1.0" encoding="utf-8"?>
<!-- Generator: Adobe Illustrator 25.4.1, SVG Export Plug-In . SVG Version: 6.00 Build 0)  -->
<svg version="1.2" baseProfile="tiny" id="Layer_1" xmlns="http://www.w3.org/2000/svg" xmlns:xlink="http://www.w3.org/1999/xlink"
	 x="0px" y="0px" viewBox="0 0 50 50" overflow="visible" xml:space="preserve">
<g>
	<path d="M28.33,9.73c3.99,3.99,7.91,7.93,11.92,11.94c-0.16,0.18-0.37,0.47-0.61,0.71c-6.9,6.91-13.82,13.82-20.72,20.73
		c-1.3,1.3-2.86,2.09-4.61,2.58c-3.34,0.94-6.66,1.93-9.99,2.9c-0.87,0.25-1.73,0.25-2.42-0.43c-0.7-0.7-0.77-1.53-0.48-2.48
		c1.07-3.55,2.01-7.13,3.17-10.65c0.42-1.28,1.13-2.6,2.06-3.55c7-7.14,14.08-14.2,21.14-21.29C27.95,10.05,28.13,9.91,28.33,9.73z"
		/>
	<path d="M30.75,7.55c1.61-1.69,3.06-3.48,4.79-4.95c2.39-2.02,5.69-1.72,7.93,0.46c1.16,1.13,2.31,2.27,3.44,3.44
		c2.48,2.59,2.44,6.14-0.08,8.69c-1.21,1.22-2.44,2.43-3.64,3.66c-0.38,0.39-0.69,0.54-1.15,0.08c-3.71-3.73-7.43-7.45-11.15-11.18
		C30.8,7.67,30.74,7.55,30.75,7.55z"/>
</g>
</svg>
